<svg width="451" height="394" viewBox="0 0 451 394" fill="none" xmlns="http://www.w3.org/2000/svg">
<path d="M251.468 394C341.763 394 414.962 381.114 414.962 365.218C414.962 349.322 341.763 336.436 251.468 336.436C161.172 336.436 87.9736 349.322 87.9736 365.218C87.9736 381.114 161.172 394 251.468 394Z" fill="#737380"/>
<path d="M142.663 178.861C153.055 163.467 157.567 144.873 155.382 126.448C153.196 108.024 144.456 90.9905 130.749 78.4364C117.041 65.8824 99.2721 58.6392 80.6648 58.0204C62.0575 57.4015 43.8438 63.4481 29.3265 75.0634C14.8092 86.6788 4.9497 103.094 1.53593 121.332C-1.87783 139.57 1.38018 158.423 10.7192 174.473C20.0581 190.522 34.8597 202.705 52.4396 208.813C70.0195 214.92 89.2138 214.547 106.542 207.762C107.665 211.758 109.765 215.413 112.654 218.402C115.543 221.39 119.13 223.618 123.095 224.886C127.06 226.154 131.278 226.423 135.373 225.668C139.468 224.913 143.31 223.158 146.557 220.56C149.804 217.962 152.354 214.602 153.978 210.781C155.603 206.961 156.251 202.798 155.865 198.667C155.48 194.535 154.072 190.563 151.768 187.107C149.464 183.65 146.335 180.817 142.663 178.861V178.861Z" fill="#1BE0AB"/>
<path d="M124.291 120.042H31.6816V127.327H124.291V120.042Z" fill="white"/>
<path d="M124.291 132.185H31.6816V139.47H124.291V132.185Z" fill="white"/>
<path d="M124.291 144.328H31.6816V151.613H124.291V144.328Z" fill="white"/>
<path d="M308.337 121.152C297.945 105.759 293.433 87.1638 295.619 68.7396C297.804 50.3154 306.544 33.2818 320.252 20.7277C333.959 8.17366 351.728 0.930465 370.335 0.311634C388.943 -0.307198 407.156 5.73931 421.674 17.3547C436.191 28.97 446.05 45.3851 449.464 63.6231C452.878 81.8611 449.62 100.714 440.281 116.764C430.942 132.813 416.14 144.997 398.56 151.104C380.981 157.211 361.786 156.839 344.459 150.053C343.335 154.049 341.235 157.704 338.346 160.693C335.457 163.681 331.87 165.909 327.905 167.177C323.94 168.446 319.722 168.714 315.627 167.959C311.533 167.204 307.69 165.449 304.443 162.851C301.196 160.253 298.646 156.893 297.022 153.073C295.397 149.252 294.749 145.089 295.135 140.958C295.521 136.826 296.928 132.854 299.232 129.398C301.536 125.941 304.665 123.108 308.337 121.152V121.152Z" fill="#1BE0AB"/>
<path d="M326.708 69.6187L419.317 69.6187V62.333L326.708 62.333V69.6187Z" fill="white"/>
<path d="M326.708 81.7616L419.317 81.7616V74.4759L326.708 74.4759V81.7616Z" fill="white"/>
<path d="M326.708 93.9044L419.317 93.9044V86.6187L326.708 86.6187V93.9044Z" fill="white"/>
<path d="M173.146 333.498C167.344 324.904 164.825 314.523 166.045 304.237C167.266 293.951 172.145 284.441 179.798 277.432C187.451 270.424 197.371 266.38 207.759 266.034C218.147 265.689 228.315 269.064 236.42 275.549C244.525 282.034 250.03 291.198 251.935 301.38C253.841 311.562 252.022 322.088 246.808 331.048C241.595 340.008 233.331 346.81 223.517 350.22C213.702 353.629 202.986 353.421 193.312 349.633C192.685 351.864 191.513 353.905 189.9 355.573C188.287 357.241 186.284 358.485 184.071 359.193C181.857 359.901 179.502 360.051 177.216 359.63C174.93 359.208 172.785 358.228 170.972 356.778C169.159 355.327 167.736 353.452 166.829 351.319C165.922 349.186 165.56 346.862 165.775 344.555C165.991 342.249 166.777 340.031 168.063 338.101C169.349 336.172 171.096 334.59 173.146 333.498V333.498Z" fill="#1BE0AB"/>
<path d="M192.138 313.345C194.916 313.345 197.168 311.101 197.168 308.333C197.168 305.565 194.916 303.321 192.138 303.321C189.36 303.321 187.108 305.565 187.108 308.333C187.108 311.101 189.36 313.345 192.138 313.345Z" fill="white"/>
<path d="M209.3 313.345C212.078 313.345 214.33 311.101 214.33 308.333C214.33 305.565 212.078 303.321 209.3 303.321C206.522 303.321 204.271 305.565 204.271 308.333C204.271 311.101 206.522 313.345 209.3 313.345Z" fill="white"/>
<path d="M226.46 313.345C229.238 313.345 231.49 311.101 231.49 308.333C231.49 305.565 229.238 303.321 226.46 303.321C223.683 303.321 221.431 305.565 221.431 308.333C221.431 311.101 223.683 313.345 226.46 313.345Z" fill="white"/>
<path d="M214.338 152.84C214.338 152.84 236.78 153.448 240.486 154.792C244.193 156.135 245.85 165.744 245.85 165.744L228.425 171.202L215.393 170.466L205.584 171.157L211.061 156.864L214.338 152.84Z" fill="#35353D"/>
<path d="M215.305 145.501C215.305 145.501 216.781 151.184 213.504 155.208C210.227 159.232 227.592 173.57 227.592 173.57L236.753 172.001C236.753 172.001 234.734 154.54 237.446 150.118C240.158 145.697 215.305 145.501 215.305 145.501Z" fill="#ECD7B9"/>
<path opacity="0.1" d="M215.305 145.501C215.305 145.501 216.781 151.184 213.504 155.208C210.227 159.232 227.592 173.57 227.592 173.57L236.753 172.001C236.753 172.001 234.734 154.54 237.446 150.118C240.158 145.697 215.305 145.501 215.305 145.501Z" fill="black"/>
<path d="M276.228 311.656L256.016 338.366L269.81 346.391L288.794 315.439L276.228 311.656Z" fill="#ECD7B9"/>
<path d="M262.05 338.816C262.05 338.816 254.607 330.198 254.938 332.12C255.27 334.042 249.642 350.34 254.878 351.916C260.114 353.493 305.013 357.674 305.631 352.622C306.249 347.57 292.236 344.034 292.236 344.034C292.236 344.034 283.912 336.061 282.066 336.872C280.221 337.683 262.05 338.816 262.05 338.816Z" fill="#35353D"/>
<path d="M271.693 337.165L287.838 364.573L300.026 357.539L283.747 335.1L271.693 337.165Z" fill="#ECD7B9"/>
<path d="M297.178 271.958L292.387 278.715C292.387 278.715 269.546 310.327 271.971 312.879C274.397 315.432 284.5 325.078 289.637 323.209C294.775 321.34 313.029 289.029 313.029 289.029L308.267 270.059L297.178 271.958Z" fill="#35353D"/>
<path d="M198.784 265.563C198.784 265.563 203.899 275.074 216.864 278.294C229.829 281.515 243.374 288.099 243.856 288.016C244.339 287.934 245.702 287.205 246.034 289.127C246.365 291.049 249.921 294.397 249.921 294.397C249.921 294.397 264.242 342.893 269.711 342.945C275.181 342.998 286.42 339.094 286.654 337.57C286.888 336.046 269.907 286.522 269.741 285.561L267.752 274.03C267.752 274.03 290.21 277.604 292.304 278.234C294.398 278.865 313.028 289.029 313.028 289.029C313.028 289.029 332.02 275.389 314.256 261.614C296.492 247.838 265.959 237.734 265.959 237.734L255.006 234.663L245.459 234.095L244.054 228.724L221.444 230.024L197.85 240.001L198.784 265.563Z" fill="#35353D"/>
<path d="M228.624 156.813C238.351 156.813 246.236 148.956 246.236 139.263C246.236 129.571 238.351 121.713 228.624 121.713C218.898 121.713 211.013 129.571 211.013 139.263C211.013 148.956 218.898 156.813 228.624 156.813Z" fill="#ECD7B9"/>
<path d="M212.69 153.369L214.808 153.006C214.808 153.006 218.634 167.685 230.469 170.11C230.469 170.11 236.309 163.138 236.06 161.962C235.81 160.786 240.684 154.51 243.276 158.023C245.867 161.537 242.643 223.425 244.82 224.536C246.998 225.647 251.668 226.826 247.909 230.932C244.15 235.039 229.219 240.564 225.912 238.657C222.604 236.75 215.847 220.595 212.924 215.16C210.001 209.725 205.323 191.235 205.323 191.235C205.323 191.235 199.349 170.988 203.025 166.401C206.701 161.814 212.69 153.369 212.69 153.369Z" fill="#D0CDE1"/>
<path d="M229.546 229.56C229.152 233.871 228.478 238.152 227.528 242.376C226.665 245.813 225.659 247.888 224.511 247.8C221.583 247.582 220.252 251.862 219.566 256.796C218.832 262.031 218.832 268.003 218.43 270.113C217.897 272.902 214.49 275.03 207.681 274.405C203.625 273.946 199.645 272.973 195.837 271.511C186.643 268.18 186.916 241.168 188.454 221.124C189.394 208.838 190.808 199.164 190.808 199.164C190.808 199.164 188.016 190.864 187.123 185.175C186.945 184.137 186.856 183.086 186.856 182.033C186.993 177.063 196.097 163.633 201.599 155.268C207.107 146.903 214.62 153.04 214.62 153.04L212.005 160.904C212.005 160.904 216.057 167.135 216.087 173.066C216.117 178.996 225.789 183.276 229.262 186.147C231.445 187.951 231.392 212.034 229.546 229.56Z" fill="#35353D"/>
<path d="M237.194 155.85C237.194 155.85 237.829 156.598 240.735 156.233C244.22 155.795 249.012 156.997 250.125 160.313C252.167 166.394 257.922 191.129 257.922 191.129C257.922 191.129 260.318 219.409 261.395 225.655C262.473 231.9 261.938 237.433 263 240.714C264.062 243.994 252.513 234.596 248.257 235.819C244.001 237.043 241.266 221.188 241.801 215.655C242.336 210.122 242.788 204.109 241.311 198.426C239.835 192.744 242.452 177.703 242.354 174.257C242.256 170.812 232.969 162.127 237.194 155.85Z" fill="#35353D"/>
<path d="M249.654 243.741C249.654 243.741 268.301 253.879 270.086 268.308C271.87 282.737 245.145 254.337 245.145 254.337L249.654 243.741Z" fill="#ECD7B9"/>
<path d="M260.299 233.509C260.299 233.509 266.013 262.209 274.914 260.685C283.815 259.16 269.942 231.858 269.942 231.858L260.299 233.509Z" fill="#ECD7B9"/>
<path d="M290.783 358.628C290.783 358.628 286.225 363.86 285.095 363.064C283.965 362.268 281.366 373.101 283.709 375.173C286.052 377.245 295.077 380.646 295.175 384.092C295.273 387.537 319.477 386.854 320.344 383.243C321.21 379.632 317.308 371.397 314.566 369.888C311.823 368.379 301.684 354.491 301.684 354.491C301.684 354.491 293.743 355.647 290.783 358.628Z" fill="#35353D"/>
<path opacity="0.1" d="M246.684 261.294C242.359 258.252 230.285 257.498 219.565 256.796C214.862 256.495 210.419 256.201 207.006 255.723C203.716 255.269 200.758 252.274 198.132 247.812C194.15 241.05 190.932 230.91 188.453 221.124C189.394 208.838 190.808 199.164 190.808 199.164C190.808 199.164 188.015 190.864 187.122 185.175C187.752 184.301 188.563 183.573 189.5 183.041C200.871 178.177 211.726 226.04 213.105 233.551C213.129 233.675 213.146 233.793 213.164 233.893C213.832 237.76 221.056 241.067 227.528 242.376C231.515 243.184 235.225 243.237 236.934 242.188C241.424 239.44 255.232 250.435 256.279 250.747C257.326 251.066 252.895 265.674 246.684 261.294Z" fill="black"/>
<path d="M189.502 180.094C189.502 180.094 181.238 183.983 184.869 202.158C188.501 220.332 195.816 251.231 207.003 252.778C218.19 254.324 240.466 253.971 246.681 258.348C252.897 262.725 257.326 248.116 256.279 247.8C255.232 247.485 241.423 236.495 236.933 239.242C232.443 241.99 214.242 237.193 213.165 230.947C212.088 224.701 201.059 175.147 189.502 180.094Z" fill="#35353D"/>
<path d="M249.054 171.378L258.136 192.38C258.136 192.38 259.051 191.925 260.113 195.206C261.175 198.486 261.672 201.369 263.533 203.524C265.394 205.678 273.673 236.412 273.922 237.854C274.17 239.295 262.487 244.264 259.876 240.259C257.265 236.255 249.054 171.378 249.054 171.378Z" fill="#35353D"/>
<path d="M218.604 139.019C219.279 138.839 219.378 137.946 219.4 137.25C219.522 133.524 221.773 129.701 225.352 128.616C226.726 128.241 228.164 128.162 229.57 128.385C231.578 128.652 233.516 129.296 235.282 130.284C236.214 130.806 237.129 131.435 238.186 131.595C238.885 131.7 241.908 132.576 242.604 132.7C244.132 132.971 245.553 134.334 247.02 133.826C248.424 133.341 248.734 131.53 248.768 130.05C248.846 126.679 246.277 122.012 244.015 119.504C242.298 117.6 239.712 116.721 237.185 116.264C234.233 115.792 231.242 115.61 228.254 115.723C224.21 115.795 220.053 116.106 216.407 117.85C212.76 119.594 209.697 123.064 209.522 127.091C209.486 127.93 209.572 128.772 209.502 129.609C209.329 131.65 208.241 133.494 207.731 135.478C207.366 136.934 207.312 138.449 207.571 139.928C207.83 141.406 208.397 142.813 209.236 144.06C210.589 146.045 212.717 147.84 212.638 150.238L215.573 147.208C216.011 146.875 216.322 146.402 216.452 145.868C216.583 145.334 216.525 144.771 216.29 144.274L215.251 140.237C214.984 139.516 214.953 138.73 215.161 137.99C216.275 135.248 217.478 139.318 218.604 139.019Z" fill="#746349"/>
<path d="M351.974 340.936C351.853 340.738 348.985 335.967 347.991 326.058C347.079 316.968 347.665 301.645 355.64 280.272C370.747 239.781 352.158 207.111 351.968 206.785L352.885 206.255C352.933 206.338 357.73 214.667 360.563 227.931C364.307 245.516 362.944 263.8 356.633 280.64C341.552 321.062 352.764 340.197 352.879 340.386L351.974 340.936Z" fill="#737380"/>
<path d="M346.067 204.408C349.872 204.408 352.957 201.334 352.957 197.542C352.957 193.751 349.872 190.677 346.067 190.677C342.262 190.677 339.178 193.751 339.178 197.542C339.178 201.334 342.262 204.408 346.067 204.408Z" fill="#737380"/>
<path d="M367.796 229.757C371.601 229.757 374.685 226.683 374.685 222.892C374.685 219.1 371.601 216.026 367.796 216.026C363.991 216.026 360.906 219.1 360.906 222.892C360.906 226.683 363.991 229.757 367.796 229.757Z" fill="#737380"/>
<path d="M352.957 246.657C356.762 246.657 359.846 243.583 359.846 239.791C359.846 236 356.762 232.926 352.957 232.926C349.152 232.926 346.067 236 346.067 239.791C346.067 243.583 349.152 246.657 352.957 246.657Z" fill="#737380"/>
<path d="M370.975 260.916C374.78 260.916 377.865 257.842 377.865 254.05C377.865 250.259 374.78 247.185 370.975 247.185C367.17 247.185 364.086 250.259 364.086 254.05C364.086 257.842 367.17 260.916 370.975 260.916Z" fill="#737380"/>
<path d="M347.657 283.097C351.462 283.097 354.547 280.023 354.547 276.231C354.547 272.439 351.462 269.366 347.657 269.366C343.852 269.366 340.768 272.439 340.768 276.231C340.768 280.023 343.852 283.097 347.657 283.097Z" fill="#737380"/>
<path d="M356.137 341.189C356.137 341.189 349.247 324.289 369.916 311.615L356.137 341.189Z" fill="#737380"/>
<path d="M347.663 340.882C347.663 340.882 344.528 322.911 320.26 323.065L347.663 340.882Z" fill="#737380"/>
</svg>
