<svg viewBox="0 0 673 674" fill="none" xmlns="http://www.w3.org/2000/svg">
  <defs>
    <linearGradient id="vector_paint" x1="0%" y1="0%" x2="100%" y2="0%">
      <stop offset="0%" style="stop-color: #28F5BE; stop-opacity:0" />
      <stop offset="100%" style="stop-color: #28F5BE; stop-opacity:1" />
    </linearGradient>
  </defs>
  <path
    fillRule="evenodd"
    clipRule="evenodd"
    d="M322.196 0.265388C371.462 -3.58399 413.113 35.3108 455.593 60.5579C495.468 84.2563 531.637 111.603 564.54 144.297C600.258 179.79 640.787 213.514 657.371 261.059C674.417 309.927 678.767 366.649 658.743 414.375C638.999 461.434 584.868 482.074 549.291 518.663C517.187 551.68 499.706 600.029 458.408 620.407C417.056 640.811 367.699 623.25 322.196 630.72C267.528 639.694 214.33 688.792 162.6 668.965C112.105 649.612 101.449 582.099 73.9146 535.558C49.467 494.235 20.7126 455.604 8.84612 409.08C-3.16635 361.984 -1.36904 313.342 4.9433 265.149C11.6494 213.951 9.59021 153.699 46.9634 118.069C85.0937 81.7181 150.042 101.377 198.474 80.6479C244.261 61.0502 272.542 4.14506 322.196 0.265388Z"
    fill="url(#vector_paint)"
    fillOpacity="1"/>
</svg>
