<svg width="1105" height="351" viewBox="0 0 1105 351" fill="none" xmlns="http://www.w3.org/2000/svg">
<path d="M391.5 218H382.4L345.8 162.5V218H336.7V148.2H345.8L382.4 203.6V148.2H391.5V218ZM457.013 188.5C457.013 190.233 456.913 192.067 456.713 194H412.913C413.246 199.4 415.079 203.633 418.413 206.7C421.813 209.7 425.913 211.2 430.713 211.2C434.646 211.2 437.913 210.3 440.513 208.5C443.179 206.633 445.046 204.167 446.113 201.1H455.913C454.446 206.367 451.513 210.667 447.113 214C442.713 217.267 437.246 218.9 430.713 218.9C425.513 218.9 420.846 217.733 416.713 215.4C412.646 213.067 409.446 209.767 407.113 205.5C404.779 201.167 403.613 196.167 403.613 190.5C403.613 184.833 404.746 179.867 407.013 175.6C409.279 171.333 412.446 168.067 416.513 165.8C420.646 163.467 425.379 162.3 430.713 162.3C435.913 162.3 440.513 163.433 444.513 165.7C448.513 167.967 451.579 171.1 453.713 175.1C455.913 179.033 457.013 183.5 457.013 188.5ZM447.613 186.6C447.613 183.133 446.846 180.167 445.313 177.7C443.779 175.167 441.679 173.267 439.013 172C436.413 170.667 433.513 170 430.313 170C425.713 170 421.779 171.467 418.513 174.4C415.313 177.333 413.479 181.4 413.013 186.6H447.613ZM497.624 218L484.624 197.6L472.124 218H462.624L480.324 190.8L462.624 163.2H472.924L485.924 183.5L498.324 163.2H507.824L490.224 190.3L507.924 218H497.624ZM527.976 170.7V203C527.976 205.667 528.542 207.567 529.676 208.7C530.809 209.767 532.776 210.3 535.576 210.3H542.276V218H534.076C529.009 218 525.209 216.833 522.676 214.5C520.142 212.167 518.876 208.333 518.876 203V170.7H511.776V163.2H518.876V149.4H527.976V163.2H542.276V170.7H527.976ZM614.862 182.1C617.395 182.5 619.695 183.533 621.762 185.2C623.895 186.867 625.562 188.933 626.762 191.4C628.028 193.867 628.662 196.5 628.662 199.3C628.662 202.833 627.762 206.033 625.962 208.9C624.162 211.7 621.528 213.933 618.062 215.6C614.662 217.2 610.628 218 605.962 218H579.962V148.3H604.962C609.695 148.3 613.728 149.1 617.062 150.7C620.395 152.233 622.895 154.333 624.562 157C626.228 159.667 627.062 162.667 627.062 166C627.062 170.133 625.928 173.567 623.662 176.3C621.462 178.967 618.528 180.9 614.862 182.1ZM589.062 178.4H604.362C608.628 178.4 611.928 177.4 614.262 175.4C616.595 173.4 617.762 170.633 617.762 167.1C617.762 163.567 616.595 160.8 614.262 158.8C611.928 156.8 608.562 155.8 604.162 155.8H589.062V178.4ZM605.162 210.5C609.695 210.5 613.228 209.433 615.762 207.3C618.295 205.167 619.562 202.2 619.562 198.4C619.562 194.533 618.228 191.5 615.562 189.3C612.895 187.033 609.328 185.9 604.862 185.9H589.062V210.5H605.162ZM665.19 218.9C660.057 218.9 655.39 217.733 651.19 215.4C647.057 213.067 643.79 209.767 641.39 205.5C639.057 201.167 637.89 196.167 637.89 190.5C637.89 184.9 639.09 179.967 641.49 175.7C643.957 171.367 647.29 168.067 651.49 165.8C655.69 163.467 660.39 162.3 665.59 162.3C670.79 162.3 675.49 163.467 679.69 165.8C683.89 168.067 687.19 171.333 689.59 175.6C692.057 179.867 693.29 184.833 693.29 190.5C693.29 196.167 692.023 201.167 689.49 205.5C687.023 209.767 683.657 213.067 679.39 215.4C675.123 217.733 670.39 218.9 665.19 218.9ZM665.19 210.9C668.457 210.9 671.523 210.133 674.39 208.6C677.257 207.067 679.557 204.767 681.29 201.7C683.09 198.633 683.99 194.9 683.99 190.5C683.99 186.1 683.123 182.367 681.39 179.3C679.657 176.233 677.39 173.967 674.59 172.5C671.79 170.967 668.757 170.2 665.49 170.2C662.157 170.2 659.09 170.967 656.29 172.5C653.557 173.967 651.357 176.233 649.69 179.3C648.023 182.367 647.19 186.1 647.19 190.5C647.19 194.967 647.99 198.733 649.59 201.8C651.257 204.867 653.457 207.167 656.19 208.7C658.923 210.167 661.923 210.9 665.19 210.9ZM709.955 154.3C708.221 154.3 706.755 153.7 705.555 152.5C704.355 151.3 703.755 149.833 703.755 148.1C703.755 146.367 704.355 144.9 705.555 143.7C706.755 142.5 708.221 141.9 709.955 141.9C711.621 141.9 713.021 142.5 714.155 143.7C715.355 144.9 715.955 146.367 715.955 148.1C715.955 149.833 715.355 151.3 714.155 152.5C713.021 153.7 711.621 154.3 709.955 154.3ZM714.355 163.2V218H705.255V163.2H714.355ZM738.964 144V218H729.864V144H738.964ZM804.473 188.5C804.473 190.233 804.373 192.067 804.173 194H760.373C760.707 199.4 762.54 203.633 765.873 206.7C769.273 209.7 773.373 211.2 778.173 211.2C782.107 211.2 785.373 210.3 787.973 208.5C790.64 206.633 792.507 204.167 793.573 201.1H803.373C801.907 206.367 798.973 210.667 794.573 214C790.173 217.267 784.707 218.9 778.173 218.9C772.973 218.9 768.307 217.733 764.173 215.4C760.107 213.067 756.907 209.767 754.573 205.5C752.24 201.167 751.073 196.167 751.073 190.5C751.073 184.833 752.207 179.867 754.473 175.6C756.74 171.333 759.907 168.067 763.973 165.8C768.107 163.467 772.84 162.3 778.173 162.3C783.373 162.3 787.973 163.433 791.973 165.7C795.973 167.967 799.04 171.1 801.173 175.1C803.373 179.033 804.473 183.5 804.473 188.5ZM795.073 186.6C795.073 183.133 794.307 180.167 792.773 177.7C791.24 175.167 789.14 173.267 786.473 172C783.873 170.667 780.973 170 777.773 170C773.173 170 769.24 171.467 765.973 174.4C762.773 177.333 760.94 181.4 760.473 186.6H795.073ZM825.585 172.1C827.185 168.967 829.452 166.533 832.385 164.8C835.385 163.067 839.018 162.2 843.285 162.2V171.6H840.885C830.685 171.6 825.585 177.133 825.585 188.2V218H816.485V163.2H825.585V172.1ZM862.89 173.3C864.69 170.167 867.357 167.567 870.89 165.5C874.49 163.367 878.657 162.3 883.39 162.3C888.257 162.3 892.657 163.467 896.59 165.8C900.59 168.133 903.723 171.433 905.99 175.7C908.257 179.9 909.39 184.8 909.39 190.4C909.39 195.933 908.257 200.867 905.99 205.2C903.723 209.533 900.59 212.9 896.59 215.3C892.657 217.7 888.257 218.9 883.39 218.9C878.723 218.9 874.59 217.867 870.99 215.8C867.457 213.667 864.757 211.033 862.89 207.9V244H853.79V163.2H862.89V173.3ZM900.09 190.4C900.09 186.267 899.257 182.667 897.59 179.6C895.923 176.533 893.657 174.2 890.79 172.6C887.99 171 884.89 170.2 881.49 170.2C878.157 170.2 875.057 171.033 872.19 172.7C869.39 174.3 867.123 176.667 865.39 179.8C863.723 182.867 862.89 186.433 862.89 190.5C862.89 194.633 863.723 198.267 865.39 201.4C867.123 204.467 869.39 206.833 872.19 208.5C875.057 210.1 878.157 210.9 881.49 210.9C884.89 210.9 887.99 210.1 890.79 208.5C893.657 206.833 895.923 204.467 897.59 201.4C899.257 198.267 900.09 194.6 900.09 190.4ZM930.468 144V218H921.368V144H930.468ZM942.577 190.4C942.577 184.8 943.711 179.9 945.977 175.7C948.244 171.433 951.344 168.133 955.277 165.8C959.277 163.467 963.711 162.3 968.577 162.3C973.377 162.3 977.544 163.333 981.077 165.4C984.611 167.467 987.244 170.067 988.977 173.2V163.2H998.177V218H988.977V207.8C987.177 211 984.477 213.667 980.877 215.8C977.344 217.867 973.211 218.9 968.477 218.9C963.611 218.9 959.211 217.7 955.277 215.3C951.344 212.9 948.244 209.533 945.977 205.2C943.711 200.867 942.577 195.933 942.577 190.4ZM988.977 190.5C988.977 186.367 988.144 182.767 986.477 179.7C984.811 176.633 982.544 174.3 979.677 172.7C976.877 171.033 973.777 170.2 970.377 170.2C966.977 170.2 963.877 171 961.077 172.6C958.277 174.2 956.044 176.533 954.377 179.6C952.711 182.667 951.877 186.267 951.877 190.4C951.877 194.6 952.711 198.267 954.377 201.4C956.044 204.467 958.277 206.833 961.077 208.5C963.877 210.1 966.977 210.9 970.377 210.9C973.777 210.9 976.877 210.1 979.677 208.5C982.544 206.833 984.811 204.467 986.477 201.4C988.144 198.267 988.977 194.633 988.977 190.5ZM1024.66 170.7V203C1024.66 205.667 1025.22 207.567 1026.36 208.7C1027.49 209.767 1029.46 210.3 1032.26 210.3H1038.96V218H1030.76C1025.69 218 1021.89 216.833 1019.36 214.5C1016.82 212.167 1015.56 208.333 1015.56 203V170.7H1008.46V163.2H1015.56V149.4H1024.66V163.2H1038.96V170.7H1024.66ZM1099.98 188.5C1099.98 190.233 1099.88 192.067 1099.68 194H1055.88C1056.21 199.4 1058.05 203.633 1061.38 206.7C1064.78 209.7 1068.88 211.2 1073.68 211.2C1077.61 211.2 1080.88 210.3 1083.48 208.5C1086.15 206.633 1088.01 204.167 1089.08 201.1H1098.88C1097.41 206.367 1094.48 210.667 1090.08 214C1085.68 217.267 1080.21 218.9 1073.68 218.9C1068.48 218.9 1063.81 217.733 1059.68 215.4C1055.61 213.067 1052.41 209.767 1050.08 205.5C1047.75 201.167 1046.58 196.167 1046.58 190.5C1046.58 184.833 1047.71 179.867 1049.98 175.6C1052.25 171.333 1055.41 168.067 1059.48 165.8C1063.61 163.467 1068.35 162.3 1073.68 162.3C1078.88 162.3 1083.48 163.433 1087.48 165.7C1091.48 167.967 1094.55 171.1 1096.68 175.1C1098.88 179.033 1099.98 183.5 1099.98 188.5ZM1090.58 186.6C1090.58 183.133 1089.81 180.167 1088.28 177.7C1086.75 175.167 1084.65 173.267 1081.98 172C1079.38 170.667 1076.48 170 1073.28 170C1068.68 170 1064.75 171.467 1061.48 174.4C1058.28 177.333 1056.45 181.4 1055.98 186.6H1090.58Z" fill="black"/>
<path d="M8 78C8 71.3726 13.3726 66 20 66H274C280.627 66 286 71.3726 286 78V254.244C286 258.965 283.197 263.271 278.876 265.172C172.664 311.902 112.459 312.338 14.7296 265.285C10.6178 263.306 8 259.112 8 254.548V78Z" fill="#31324A"/>
<ellipse cx="148" cy="76.5" rx="148" ry="46.5" fill="#888A9F"/>
<path d="M253.393 231.948L228.925 239.898C224.275 241.409 222.302 246.887 224.972 250.969C229.656 258.131 234.386 265.07 238.951 271.767C249.326 286.988 258.851 300.963 265.071 313.481C265.663 314.674 267.109 315.797 269.11 316.72C271.092 317.633 273.534 318.31 275.996 318.662C278.46 319.014 280.914 319.036 282.919 318.659C284.947 318.278 286.4 317.513 287.04 316.401C287.724 315.215 287.872 313.795 287.449 312.494L262.843 236.763C261.563 232.824 257.332 230.668 253.393 231.948Z" fill="#31324A" stroke="#A7A7A7"/>
<path d="M50.3729 231.948L74.8404 239.898C79.4906 241.409 81.4638 246.887 78.7937 250.969C74.109 258.131 69.3795 265.07 64.8145 271.767C54.4397 286.988 44.9144 300.963 38.6948 313.481C38.1022 314.674 36.6567 315.797 34.655 316.72C32.6737 317.633 30.2312 318.31 27.7691 318.662C25.3053 319.014 22.8517 319.036 20.8464 318.659C18.8181 318.278 17.3657 317.513 16.7249 316.401C16.0417 315.215 15.8931 313.795 16.316 312.494L40.9223 236.763C42.2023 232.824 46.4335 230.668 50.3729 231.948Z" fill="#31324A" stroke="#A7A7A7"/>
<ellipse cx="148" cy="72.5" rx="135" ry="40.5" fill="#5B586D"/>
<circle cx="102" cy="26" r="15" fill="#C84FDD"/>
<circle cx="95.5" cy="20.5" r="3.5" fill="#A326B9"/>
<circle cx="92.5" cy="25.5" r="1.5" fill="#A326B9"/>
<circle cx="196" cy="15" r="15" fill="#C84FDD"/>
<circle cx="189.5" cy="9.5" r="3.5" fill="#A326B9"/>
<circle cx="186.5" cy="14.5" r="1.5" fill="#A326B9"/>
<mask id="mask0" mask-type="alpha" maskUnits="userSpaceOnUse" x="13" y="32" width="270" height="81">
<ellipse cx="148" cy="72.5" rx="135" ry="40.5" fill="#5B586D"/>
</mask>
<g mask="url(#mask0)">
<ellipse cx="148" cy="80.0002" rx="133" ry="33" fill="#9840A7"/>
<circle cx="141" cy="60" r="15" fill="#C84FDD"/>
<circle cx="134.5" cy="54.5" r="3.5" fill="#A326B9"/>
<circle cx="131.5" cy="59.5" r="1.5" fill="#A326B9"/>
</g>
<mask id="mask1" mask-type="alpha" maskUnits="userSpaceOnUse" x="70" y="66" width="30" height="30">
<circle cx="85" cy="81" r="15" fill="#C84FDD"/>
<circle cx="78.5" cy="75.5" r="3.5" fill="#A326B9"/>
<circle cx="75.5" cy="80.5" r="1.5" fill="#A326B9"/>
</mask>
<g mask="url(#mask1)">
<path d="M69 65H101V87C88.8708 90.6784 81.8748 90.7749 69 87V65Z" fill="#C84FDD"/>
<circle cx="79.5" cy="73.5" r="3.5" fill="#A326B9"/>
<circle cx="76.5" cy="78.5" r="1.5" fill="#A326B9"/>
</g>
<mask id="mask2" mask-type="alpha" maskUnits="userSpaceOnUse" x="219" y="48" width="30" height="30">
<circle cx="234" cy="63" r="15" fill="#C84FDD"/>
<circle cx="227.5" cy="57.5" r="3.5" fill="#A326B9"/>
<circle cx="224.5" cy="62.5" r="1.5" fill="#A326B9"/>
</mask>
<g mask="url(#mask2)">
<path d="M218 47H250V72.7309C237.871 77.0331 230.875 77.146 218 72.7309V47Z" fill="#C84FDD"/>
<circle cx="228.5" cy="55.5" r="3.5" fill="#A326B9"/>
<circle cx="225.5" cy="60.5" r="1.5" fill="#A326B9"/>
</g>
<mask id="mask3" mask-type="alpha" maskUnits="userSpaceOnUse" x="156" y="80" width="30" height="30">
<circle cx="171" cy="95" r="15" fill="#C84FDD"/>
<circle cx="164.5" cy="89.5" r="3.5" fill="#A326B9"/>
<circle cx="161.5" cy="94.5" r="1.5" fill="#A326B9"/>
</mask>
<g mask="url(#mask3)">
<path d="M154 74H186V96C173.871 99.6784 166.875 99.7749 154 96V74Z" fill="#C84FDD"/>
<circle cx="165.5" cy="87.5" r="3.5" fill="#A326B9"/>
<circle cx="162.5" cy="92.5" r="1.5" fill="#A326B9"/>
</g>
</svg>
